<svg xmlns="http://www.w3.org/2000/svg" width="23" height="21" viewBox="0 0 23 21">
  <defs>
    <style>
      .cls-1 {
        fill: #fff;
        fill-rule: evenodd;
      }
    </style>
  </defs>
  <path id="Forma_1" data-name="Forma 1" class="cls-1" d="M1420.85,23.712h2.44l3.47,12.64a0.855,0.855,0,0,0,.83.628h10.68a0.862,0.862,0,0,0,.78-0.514l3.88-8.988a0.869,0.869,0,0,0-.07-0.813,0.855,0.855,0,0,0-.71-0.385h-11.8a0.856,0.856,0,0,0,0,1.712h10.5l-3.15,7.276h-9.47l-3.48-12.64a0.852,0.852,0,0,0-.82-0.628h-3.08A0.856,0.856,0,0,0,1420.85,23.712ZM1426.78,43a1.94,1.94,0,1,0-1.93-1.94A1.94,1.94,0,0,0,1426.78,43Zm12.05,0h0.14a1.9,1.9,0,0,0,1.32-.67A1.917,1.917,0,1,0,1438.83,43Z" transform="translate(-1420 -22)"/>
</svg>
