<svg xmlns="http://www.w3.org/2000/svg" width="23.97" height="24" viewBox="0 0 23.97 24">
  <defs>
    <style>
      .cls-1 {
        fill: #b6907e;
        fill-rule: evenodd;
      }
    </style>
  </defs>
  <path class="cls-1" d="M1382.99,139.861a2.367,2.367,0,0,0-1.71-.786,2.442,2.442,0,0,0-1.74.781l-1.61,1.6c-0.13-.071-0.26-0.137-0.39-0.2-0.18-.092-0.35-0.178-0.5-0.269a17.487,17.487,0,0,1-4.18-3.8,10.476,10.476,0,0,1-1.37-2.159c0.42-.38.8-0.776,1.18-1.156,0.14-.142.28-0.289,0.43-0.431a2.332,2.332,0,0,0,0-3.508l-1.39-1.383c-0.16-.157-0.32-0.32-0.47-0.482-0.31-.314-0.63-0.639-0.96-0.943a2.4,2.4,0,0,0-1.7-.745,2.48,2.48,0,0,0-1.72.745c-0.01,0-.01,0-0.01.01l-1.73,1.739a3.7,3.7,0,0,0-1.1,2.357,8.981,8.981,0,0,0,.65,3.761,21.811,21.811,0,0,0,3.88,6.468,23.93,23.93,0,0,0,7.96,6.22,12.4,12.4,0,0,0,4.47,1.318c0.1,0,.21.01,0.32,0.01a3.811,3.811,0,0,0,2.92-1.257,0.044,0.044,0,0,0,.02-0.025,12.517,12.517,0,0,1,.89-0.918q0.33-.312.66-0.654a2.5,2.5,0,0,0,.77-1.754,2.443,2.443,0,0,0-.78-1.738Zm1.82,5.337c-0.01,0-.01,0,0,0-0.2.213-.4,0.406-0.62,0.619a12.444,12.444,0,0,0-.98,1.014,2.451,2.451,0,0,1-1.91.805c-0.08,0-.16,0-0.23,0a11,11,0,0,1-3.96-1.186,22.55,22.55,0,0,1-7.5-5.859,20.658,20.658,0,0,1-3.65-6.078,7.207,7.207,0,0,1-.57-3.173,2.33,2.33,0,0,1,.7-1.506l1.73-1.728a1.173,1.173,0,0,1,.77-0.36,1.126,1.126,0,0,1,.75.355s0.01,0.01.01,0.015c0.31,0.289.6,0.588,0.91,0.907,0.16,0.163.32,0.325,0.49,0.492l1.38,1.384a0.964,0.964,0,0,1,0,1.571c-0.14.147-.29,0.294-0.43,0.436-0.43.436-.84,0.842-1.28,1.237a0.044,0.044,0,0,0-.02.025,1.034,1.034,0,0,0-.27,1.151c0.01,0.015.01,0.03,0.02,0.046a11.156,11.156,0,0,0,1.64,2.671v0a18.633,18.633,0,0,0,4.51,4.1c0.21,0.131.42,0.238,0.62,0.339s0.36,0.178.51,0.269c0.02,0.01.04,0.025,0.06,0.035a1.031,1.031,0,0,0,1.27-.223l1.74-1.733a1.146,1.146,0,0,1,.76-0.38,1.047,1.047,0,0,1,.74.37s0,0,.01.01l2.79,2.793A1,1,0,0,1,1384.81,145.2Zm-7.83-14.5a6.538,6.538,0,0,1,5.32,5.312,0.689,0.689,0,0,0,.68.568,0.818,0.818,0,0,0,.11-0.01,0.688,0.688,0,0,0,.57-0.791,7.9,7.9,0,0,0-6.44-6.427,0.681,0.681,0,0,0-.79.557A0.669,0.669,0,0,0,1376.98,130.7Zm11.03,4.882a13,13,0,0,0-10.6-10.585,0.684,0.684,0,1,0-.23,1.349,11.627,11.627,0,0,1,9.48,9.458,0.671,0.671,0,0,0,.67.568,0.971,0.971,0,0,0,.12-0.01A0.677,0.677,0,0,0,1388.01,135.578Z" transform="translate(-1364.03 -125)"/>
</svg>
