<svg xmlns="http://www.w3.org/2000/svg" width="21" height="25" viewBox="0 0 21 25">
  <defs>
    <style>
      .cls-1 {
        fill: #fff;
        fill-rule: evenodd;
      }
    </style>
  </defs>
  <path id="user" class="cls-1" d="M1539.4,33.471h0.17a4.7,4.7,0,0,0,3.6-1.579c1.96-2.247,1.64-6.1,1.6-6.466-0.13-2.759-1.41-4.079-2.48-4.7a5.592,5.592,0,0,0-2.74-.73h-0.09a5.631,5.631,0,0,0-2.75.71,5.308,5.308,0,0,0-2.51,4.716c-0.03.368-.36,4.219,1.61,6.466A4.667,4.667,0,0,0,1539.4,33.471Zm-3.83-7.916V25.513c0.17-3.712,2.77-4.11,3.88-4.11h0.07c1.37,0.031,3.72.6,3.88,4.11v0.042c0.01,0.036.37,3.557-1.26,5.41a3.319,3.319,0,0,1-2.63,1.108h-0.05a3.334,3.334,0,0,1-2.63-1.108C1535.21,29.122,1535.56,25.586,1535.57,25.555Zm14.41,14.3V39.714c-0.03-1.025-.1-3.422-2.32-4.188a0.3,0.3,0,0,0-.05-0.016,14.722,14.722,0,0,1-4.24-1.957,0.683,0.683,0,0,0-.96.171,0.706,0.706,0,0,0,.17.974,15.886,15.886,0,0,0,4.66,2.159c1.19,0.43,1.33,1.719,1.36,2.9a0.545,0.545,0,0,0,.01.13,10.292,10.292,0,0,1-.11,1.6,20.164,20.164,0,0,1-18.02-.005,9.216,9.216,0,0,1-.1-1.6v-0.13c0.04-1.18.17-2.47,1.36-2.9a15.878,15.878,0,0,0,4.66-2.159,0.7,0.7,0,0,0,.17-0.973,0.683,0.683,0,0,0-.96-0.171,14.408,14.408,0,0,1-4.24,1.957c-0.02.005-.03,0.01-0.05,0.016-2.22.771-2.28,3.168-2.31,4.188a0.542,0.542,0,0,1-.01.129v0.016a8.245,8.245,0,0,0,.26,2.345,0.679,0.679,0,0,0,.27.326,21.324,21.324,0,0,0,19.94,0,0.679,0.679,0,0,0,.27-0.326A8.415,8.415,0,0,0,1549.98,39.859Z" transform="translate(-1529 -20)"/>
</svg>
